<svg xmlns="http://www.w3.org/2000/svg" viewBox="100.30000000000001 183.84 381.78099694824215 208.07999954223632"><rect height="100%" width="100%" x="100.30000000000001" y="183.84" fill="rgba(0, 0, 64, 1)"/> <svg xmlns="http://www.w3.org/2000/svg" viewBox="0 0 75.6500015258789 63" height="54.99626346177582" width="66.03916713169643" y="260.002" x="170.3" preserveAspectRatio="xMinYMin" style="overflow: visible;"><path id="6666_1-2" dataName="6666 1" class="cls-1" d="M44,25.22H75.65L72.1,32.3a10,10,0,0,1-8.93,5.52H35.42a6.31,6.31,0,0,0-5.63,3.48h0L21.66,57.55A10,10,0,0,1,12.77,63H0L9.86,43.31a10,10,0,0,1,8.89-5.49h8.88a6.32,6.32,0,0,0,5.58-3.37h0l1.85-3.71A10,10,0,0,1,44,25.22ZM35.06,56,31.52,63H63.17a10,10,0,0,0,8.93-5.52l3.55-7.09H44A10,10,0,0,0,35.06,56ZM28,19.73l1.82-3.65h0a6.3,6.3,0,0,1,5.63-3.47H63.17A10,10,0,0,0,72.1,7.09L75.65,0H44a10,10,0,0,0-8.94,5.52L33.21,9.23h0a6.31,6.31,0,0,1-5.58,3.38H18.74a9.91,9.91,0,0,0-8.87,5.48L6.3,25.22H19.09A9.93,9.93,0,0,0,28,19.73Z" style="fill: #00cc60; fill-opacity: 1;"></path></svg> <svg y="312.44" viewBox="0.699999988079071 2.559999942779541 140.07000732421875 9.479999542236328" x="266.631" height="9.479999542236328" width="140.07000732421875" style="overflow: visible;"><g fill="#909e98" fill-opacity="1" style=""><path d="M8.13 3.16L7.73 4.62Q7.28 4.31 6.66 4.12Q6.03 3.93 5.24 3.93L5.24 3.93Q4.48 3.93 3.94 4.17Q3.40 4.41 3.07 4.84Q2.73 5.28 2.57 5.89Q2.41 6.50 2.41 7.24L2.41 7.24Q2.41 8.93 3.13 9.80Q3.85 10.67 5.21 10.67L5.21 10.67Q6.05 10.67 6.74 10.42Q7.43 10.16 7.88 9.80L7.88 9.80L8.30 11.19Q7.74 11.52 6.95 11.78Q6.16 12.04 5.17 12.04L5.17 12.04Q4.02 12.04 3.18 11.66Q2.34 11.28 1.79 10.64Q1.23 10.00 0.97 9.15Q0.70 8.30 0.70 7.35L0.70 7.35Q0.70 6.36 0.99 5.49Q1.29 4.62 1.87 3.97Q2.45 3.32 3.31 2.94Q4.17 2.56 5.32 2.56L5.32 2.56Q6.08 2.56 6.83 2.72Q7.59 2.88 8.13 3.16L8.13 3.16ZM20.24 2.56L20.24 2.56Q21.34 2.56 22.18 2.94Q23.02 3.32 23.59 3.97Q24.16 4.62 24.46 5.47Q24.75 6.33 24.75 7.27L24.75 7.27Q24.75 8.19 24.47 9.05Q24.18 9.91 23.60 10.58Q23.02 11.24 22.16 11.64Q21.29 12.04 20.15 12.04L20.15 12.04Q19.03 12.04 18.20 11.66Q17.37 11.28 16.83 10.64Q16.28 10.00 16.01 9.15Q15.74 8.30 15.74 7.36L15.74 7.36Q15.74 6.37 16.04 5.50Q16.34 4.62 16.91 3.97Q17.49 3.32 18.33 2.94Q19.17 2.56 20.24 2.56ZM20.17 10.67L20.17 10.67Q20.94 10.67 21.48 10.41Q22.02 10.15 22.37 9.70Q22.72 9.24 22.88 8.62Q23.04 8.01 23.04 7.31L23.04 7.31Q23.04 6.55 22.88 5.94Q22.71 5.32 22.36 4.87Q22.01 4.42 21.47 4.18Q20.93 3.93 20.20 3.93L20.20 3.93Q19.46 3.93 18.94 4.18Q18.41 4.42 18.08 4.86Q17.75 5.29 17.61 5.89Q17.46 6.50 17.46 7.22L17.46 7.22Q17.46 8.93 18.16 9.80Q18.86 10.67 20.17 10.67ZM35.08 2.63L39.14 9.42L39.14 2.63L40.75 2.63L40.75 11.87L38.78 11.87L34.72 5.10L34.72 11.87L33.11 11.87L33.11 2.63L35.08 2.63ZM50.83 4.86L50.83 4.86Q50.83 5.15 50.97 5.36Q51.10 5.57 51.34 5.73Q51.58 5.88 51.91 6.01Q52.23 6.15 52.64 6.29L52.64 6.29Q53.14 6.47 53.64 6.70Q54.14 6.93 54.54 7.27Q54.94 7.62 55.19 8.12Q55.44 8.62 55.44 9.34L55.44 9.34Q55.44 10.09 55.17 10.61Q54.89 11.13 54.43 11.45Q53.97 11.76 53.37 11.90Q52.77 12.04 52.12 12.04L52.12 12.04Q51.20 12.04 50.39 11.82Q49.59 11.59 49.01 11.27L49.01 11.27L49.43 9.76Q49.97 10.16 50.62 10.43Q51.27 10.70 52.11 10.70L52.11 10.70Q53.00 10.70 53.41 10.38Q53.82 10.07 53.82 9.53L53.82 9.53Q53.82 9.13 53.62 8.84Q53.42 8.55 53.13 8.35Q52.84 8.15 52.51 8.02Q52.18 7.90 51.93 7.81L51.93 7.81Q51.48 7.67 51.02 7.48Q50.55 7.28 50.16 6.96Q49.77 6.65 49.52 6.17Q49.28 5.70 49.28 4.98L49.28 4.98Q49.28 4.31 49.51 3.85Q49.74 3.39 50.14 3.10Q50.54 2.81 51.08 2.69Q51.62 2.56 52.25 2.56L52.25 2.56Q53.02 2.56 53.74 2.72Q54.46 2.87 54.95 3.09L54.95 3.09L54.57 4.58Q54.32 4.41 54.03 4.28Q53.73 4.16 53.42 4.07Q53.10 3.99 52.79 3.94Q52.47 3.89 52.19 3.89L52.19 3.89Q51.56 3.89 51.20 4.13Q50.83 4.37 50.83 4.86ZM65.20 2.63L65.20 8.29Q65.20 9.56 65.79 10.12Q66.37 10.67 67.42 10.67L67.42 10.67Q68.47 10.67 69.07 10.12Q69.66 9.56 69.66 8.29L69.66 8.29L69.66 2.63L71.20 2.63L71.20 8.62Q71.20 9.31 70.98 9.93Q70.76 10.54 70.29 11.01Q69.82 11.48 69.08 11.75Q68.35 12.03 67.34 12.03L67.34 12.03Q66.33 12.03 65.62 11.75Q64.90 11.48 64.45 11.01Q63.99 10.54 63.79 9.93Q63.59 9.31 63.59 8.62L63.59 8.62L63.59 2.63L65.20 2.63ZM81.61 2.63L81.61 10.47L85.46 10.47L85.46 11.87L80.00 11.87L80.00 2.63L81.61 2.63ZM98.57 2.63L98.57 4.03L95.90 4.03L95.90 11.87L94.29 11.87L94.29 4.03L91.62 4.03L91.62 2.63L98.57 2.63ZM108.15 2.63L108.15 11.87L106.54 11.87L106.54 2.63L108.15 2.63ZM119.03 2.63L123.09 9.42L123.09 2.63L124.70 2.63L124.70 11.87L122.72 11.87L118.66 5.10L118.66 11.87L117.05 11.87L117.05 2.63L119.03 2.63ZM140.77 8.06L140.77 11.10Q140.14 11.52 139.33 11.78Q138.52 12.04 137.55 12.04L137.55 12.04Q136.39 12.04 135.55 11.66Q134.71 11.28 134.16 10.64Q133.60 10.00 133.34 9.15Q133.07 8.30 133.07 7.35L133.07 7.35Q133.07 6.36 133.36 5.49Q133.66 4.62 134.24 3.97Q134.82 3.32 135.69 2.94Q136.56 2.56 137.72 2.56L137.72 2.56Q138.50 2.56 139.27 2.72Q140.04 2.88 140.64 3.16L140.64 3.16L140.20 4.62Q139.72 4.34 139.09 4.14Q138.46 3.93 137.66 3.93L137.66 3.93Q136.86 3.93 136.31 4.17Q135.76 4.40 135.42 4.83Q135.09 5.26 134.93 5.87Q134.78 6.48 134.78 7.25L134.78 7.25Q134.78 10.67 137.68 10.67L137.68 10.67Q138.19 10.67 138.50 10.58Q138.81 10.50 139.16 10.39L139.16 10.39L139.16 8.06L140.77 8.06Z" transform="translate(0, 0)"></path></g></svg> <svg y="253.84" viewBox="4.389999866485596 13.770000457763672 145.4499969482422 33.65999984741211" x="266.631" height="33.65999984741211" width="145.4499969482422" style="overflow: visible;"><g fill="#ffffff" fill-opacity="1" style=""><path d="M30.35 47.43L4.39 47.43L4.39 13.77L29.63 13.77L29.63 19.43L11.42 19.43L11.42 27.80L25.76 27.80L25.76 33.20L11.42 33.20L11.42 41.77L30.35 41.77L30.35 47.43ZM63.34 13.77L69.67 13.77L69.67 47.43L61.61 47.43L49.83 27.64L46.92 22.13L46.87 22.13L47.07 27.95L47.07 47.43L40.75 47.43L40.75 13.77L48.76 13.77L60.54 33.51L63.44 39.07L63.55 39.07L63.34 33.25L63.34 13.77ZM104.35 13.77L111.59 13.77L99.35 47.43L91.14 47.43L78.85 13.77L86.29 13.77L93.38 35.19L95.32 41.82L97.21 35.24L104.35 13.77ZM120.77 13.77L135.61 13.77Q141.32 13.77 144.58 16.52Q147.85 19.28 147.85 23.92L147.85 23.92Q147.85 28.87 144.58 31.49Q141.32 34.12 135.66 34.12L135.66 34.12L134.95 34.53L127.70 34.53L127.70 47.43L120.77 47.43L120.77 13.77ZM127.70 29.17L134.79 29.17Q137.75 29.17 139.20 27.97Q140.66 26.78 140.66 24.28L140.66 24.28Q140.66 21.78 139.20 20.58Q137.75 19.38 134.79 19.38L134.79 19.38L127.70 19.38L127.70 29.17ZM132.91 32.69L138.92 30.65L149.84 47.43L141.93 47.43L132.91 32.69Z" transform="translate(0, 0)"></path></g></svg></svg>